<?xml version="1.0" standalone="no"?>
<svg xmlns="http://www.w3.org/2000/svg" version="1.1" width="696" height="696">
	<!-- Created with https://api.qrserver.com (QR Code API, see goQR.me/api for information) -->
	<title>QR Code</title>
	<desc>https://fm767.jp/</desc>
	<rect style="fill:rgb(255, 255, 255);fill-opacity:1" x="0" y="0" width="696" height="696" />
	<g id="elements">
		<path style="fill:rgb(0, 0, 0)" d="M 96,96 l 24,0 0,24 -24,0 z M 120,96 l 24,0 0,24 -24,0 z M 144,96 l 24,0 0,24 -24,0 z M 168,96 l 24,0 0,24 -24,0 z M 192,96 l 24,0 0,24 -24,0 z M 216,96 l 24,0 0,24 -24,0 z M 240,96 l 24,0 0,24 -24,0 z M 312,96 l 24,0 0,24 -24,0 z M 360,96 l 24,0 0,24 -24,0 z M 432,96 l 24,0 0,24 -24,0 z M 456,96 l 24,0 0,24 -24,0 z M 480,96 l 24,0 0,24 -24,0 z M 504,96 l 24,0 0,24 -24,0 z M 528,96 l 24,0 0,24 -24,0 z M 552,96 l 24,0 0,24 -24,0 z M 576,96 l 24,0 0,24 -24,0 z M 96,120 l 24,0 0,24 -24,0 z M 240,120 l 24,0 0,24 -24,0 z M 288,120 l 24,0 0,24 -24,0 z M 312,120 l 24,0 0,24 -24,0 z M 360,120 l 24,0 0,24 -24,0 z M 384,120 l 24,0 0,24 -24,0 z M 432,120 l 24,0 0,24 -24,0 z M 576,120 l 24,0 0,24 -24,0 z M 96,144 l 24,0 0,24 -24,0 z M 144,144 l 24,0 0,24 -24,0 z M 168,144 l 24,0 0,24 -24,0 z M 192,144 l 24,0 0,24 -24,0 z M 240,144 l 24,0 0,24 -24,0 z M 312,144 l 24,0 0,24 -24,0 z M 432,144 l 24,0 0,24 -24,0 z M 480,144 l 24,0 0,24 -24,0 z M 504,144 l 24,0 0,24 -24,0 z M 528,144 l 24,0 0,24 -24,0 z M 576,144 l 24,0 0,24 -24,0 z M 96,168 l 24,0 0,24 -24,0 z M 144,168 l 24,0 0,24 -24,0 z M 168,168 l 24,0 0,24 -24,0 z M 192,168 l 24,0 0,24 -24,0 z M 240,168 l 24,0 0,24 -24,0 z M 288,168 l 24,0 0,24 -24,0 z M 312,168 l 24,0 0,24 -24,0 z M 336,168 l 24,0 0,24 -24,0 z M 432,168 l 24,0 0,24 -24,0 z M 480,168 l 24,0 0,24 -24,0 z M 504,168 l 24,0 0,24 -24,0 z M 528,168 l 24,0 0,24 -24,0 z M 576,168 l 24,0 0,24 -24,0 z M 96,192 l 24,0 0,24 -24,0 z M 144,192 l 24,0 0,24 -24,0 z M 168,192 l 24,0 0,24 -24,0 z M 192,192 l 24,0 0,24 -24,0 z M 240,192 l 24,0 0,24 -24,0 z M 336,192 l 24,0 0,24 -24,0 z M 432,192 l 24,0 0,24 -24,0 z M 480,192 l 24,0 0,24 -24,0 z M 504,192 l 24,0 0,24 -24,0 z M 528,192 l 24,0 0,24 -24,0 z M 576,192 l 24,0 0,24 -24,0 z M 96,216 l 24,0 0,24 -24,0 z M 240,216 l 24,0 0,24 -24,0 z M 288,216 l 24,0 0,24 -24,0 z M 336,216 l 24,0 0,24 -24,0 z M 360,216 l 24,0 0,24 -24,0 z M 384,216 l 24,0 0,24 -24,0 z M 432,216 l 24,0 0,24 -24,0 z M 576,216 l 24,0 0,24 -24,0 z M 96,240 l 24,0 0,24 -24,0 z M 120,240 l 24,0 0,24 -24,0 z M 144,240 l 24,0 0,24 -24,0 z M 168,240 l 24,0 0,24 -24,0 z M 192,240 l 24,0 0,24 -24,0 z M 216,240 l 24,0 0,24 -24,0 z M 240,240 l 24,0 0,24 -24,0 z M 288,240 l 24,0 0,24 -24,0 z M 336,240 l 24,0 0,24 -24,0 z M 384,240 l 24,0 0,24 -24,0 z M 432,240 l 24,0 0,24 -24,0 z M 456,240 l 24,0 0,24 -24,0 z M 480,240 l 24,0 0,24 -24,0 z M 504,240 l 24,0 0,24 -24,0 z M 528,240 l 24,0 0,24 -24,0 z M 552,240 l 24,0 0,24 -24,0 z M 576,240 l 24,0 0,24 -24,0 z M 312,264 l 24,0 0,24 -24,0 z M 96,288 l 24,0 0,24 -24,0 z M 120,288 l 24,0 0,24 -24,0 z M 144,288 l 24,0 0,24 -24,0 z M 168,288 l 24,0 0,24 -24,0 z M 192,288 l 24,0 0,24 -24,0 z M 240,288 l 24,0 0,24 -24,0 z M 264,288 l 24,0 0,24 -24,0 z M 288,288 l 24,0 0,24 -24,0 z M 312,288 l 24,0 0,24 -24,0 z M 360,288 l 24,0 0,24 -24,0 z M 408,288 l 24,0 0,24 -24,0 z M 456,288 l 24,0 0,24 -24,0 z M 504,288 l 24,0 0,24 -24,0 z M 552,288 l 24,0 0,24 -24,0 z M 96,312 l 24,0 0,24 -24,0 z M 144,312 l 24,0 0,24 -24,0 z M 168,312 l 24,0 0,24 -24,0 z M 192,312 l 24,0 0,24 -24,0 z M 216,312 l 24,0 0,24 -24,0 z M 264,312 l 24,0 0,24 -24,0 z M 288,312 l 24,0 0,24 -24,0 z M 312,312 l 24,0 0,24 -24,0 z M 336,312 l 24,0 0,24 -24,0 z M 408,312 l 24,0 0,24 -24,0 z M 432,312 l 24,0 0,24 -24,0 z M 456,312 l 24,0 0,24 -24,0 z M 480,312 l 24,0 0,24 -24,0 z M 504,312 l 24,0 0,24 -24,0 z M 528,312 l 24,0 0,24 -24,0 z M 552,312 l 24,0 0,24 -24,0 z M 576,312 l 24,0 0,24 -24,0 z M 96,336 l 24,0 0,24 -24,0 z M 144,336 l 24,0 0,24 -24,0 z M 168,336 l 24,0 0,24 -24,0 z M 192,336 l 24,0 0,24 -24,0 z M 216,336 l 24,0 0,24 -24,0 z M 240,336 l 24,0 0,24 -24,0 z M 264,336 l 24,0 0,24 -24,0 z M 288,336 l 24,0 0,24 -24,0 z M 336,336 l 24,0 0,24 -24,0 z M 384,336 l 24,0 0,24 -24,0 z M 408,336 l 24,0 0,24 -24,0 z M 432,336 l 24,0 0,24 -24,0 z M 456,336 l 24,0 0,24 -24,0 z M 528,336 l 24,0 0,24 -24,0 z M 552,336 l 24,0 0,24 -24,0 z M 120,360 l 24,0 0,24 -24,0 z M 264,360 l 24,0 0,24 -24,0 z M 288,360 l 24,0 0,24 -24,0 z M 360,360 l 24,0 0,24 -24,0 z M 408,360 l 24,0 0,24 -24,0 z M 480,360 l 24,0 0,24 -24,0 z M 504,360 l 24,0 0,24 -24,0 z M 528,360 l 24,0 0,24 -24,0 z M 96,384 l 24,0 0,24 -24,0 z M 120,384 l 24,0 0,24 -24,0 z M 168,384 l 24,0 0,24 -24,0 z M 240,384 l 24,0 0,24 -24,0 z M 264,384 l 24,0 0,24 -24,0 z M 312,384 l 24,0 0,24 -24,0 z M 360,384 l 24,0 0,24 -24,0 z M 384,384 l 24,0 0,24 -24,0 z M 432,384 l 24,0 0,24 -24,0 z M 480,384 l 24,0 0,24 -24,0 z M 504,384 l 24,0 0,24 -24,0 z M 576,384 l 24,0 0,24 -24,0 z M 288,408 l 24,0 0,24 -24,0 z M 312,408 l 24,0 0,24 -24,0 z M 360,408 l 24,0 0,24 -24,0 z M 408,408 l 24,0 0,24 -24,0 z M 456,408 l 24,0 0,24 -24,0 z M 480,408 l 24,0 0,24 -24,0 z M 504,408 l 24,0 0,24 -24,0 z M 528,408 l 24,0 0,24 -24,0 z M 576,408 l 24,0 0,24 -24,0 z M 96,432 l 24,0 0,24 -24,0 z M 120,432 l 24,0 0,24 -24,0 z M 144,432 l 24,0 0,24 -24,0 z M 168,432 l 24,0 0,24 -24,0 z M 192,432 l 24,0 0,24 -24,0 z M 216,432 l 24,0 0,24 -24,0 z M 240,432 l 24,0 0,24 -24,0 z M 288,432 l 24,0 0,24 -24,0 z M 384,432 l 24,0 0,24 -24,0 z M 432,432 l 24,0 0,24 -24,0 z M 456,432 l 24,0 0,24 -24,0 z M 528,432 l 24,0 0,24 -24,0 z M 552,432 l 24,0 0,24 -24,0 z M 96,456 l 24,0 0,24 -24,0 z M 240,456 l 24,0 0,24 -24,0 z M 336,456 l 24,0 0,24 -24,0 z M 408,456 l 24,0 0,24 -24,0 z M 456,456 l 24,0 0,24 -24,0 z M 480,456 l 24,0 0,24 -24,0 z M 504,456 l 24,0 0,24 -24,0 z M 528,456 l 24,0 0,24 -24,0 z M 552,456 l 24,0 0,24 -24,0 z M 96,480 l 24,0 0,24 -24,0 z M 144,480 l 24,0 0,24 -24,0 z M 168,480 l 24,0 0,24 -24,0 z M 192,480 l 24,0 0,24 -24,0 z M 240,480 l 24,0 0,24 -24,0 z M 288,480 l 24,0 0,24 -24,0 z M 360,480 l 24,0 0,24 -24,0 z M 384,480 l 24,0 0,24 -24,0 z M 432,480 l 24,0 0,24 -24,0 z M 456,480 l 24,0 0,24 -24,0 z M 480,480 l 24,0 0,24 -24,0 z M 504,480 l 24,0 0,24 -24,0 z M 96,504 l 24,0 0,24 -24,0 z M 144,504 l 24,0 0,24 -24,0 z M 168,504 l 24,0 0,24 -24,0 z M 192,504 l 24,0 0,24 -24,0 z M 240,504 l 24,0 0,24 -24,0 z M 288,504 l 24,0 0,24 -24,0 z M 312,504 l 24,0 0,24 -24,0 z M 360,504 l 24,0 0,24 -24,0 z M 408,504 l 24,0 0,24 -24,0 z M 432,504 l 24,0 0,24 -24,0 z M 480,504 l 24,0 0,24 -24,0 z M 528,504 l 24,0 0,24 -24,0 z M 552,504 l 24,0 0,24 -24,0 z M 96,528 l 24,0 0,24 -24,0 z M 144,528 l 24,0 0,24 -24,0 z M 168,528 l 24,0 0,24 -24,0 z M 192,528 l 24,0 0,24 -24,0 z M 240,528 l 24,0 0,24 -24,0 z M 288,528 l 24,0 0,24 -24,0 z M 312,528 l 24,0 0,24 -24,0 z M 336,528 l 24,0 0,24 -24,0 z M 384,528 l 24,0 0,24 -24,0 z M 408,528 l 24,0 0,24 -24,0 z M 456,528 l 24,0 0,24 -24,0 z M 528,528 l 24,0 0,24 -24,0 z M 96,552 l 24,0 0,24 -24,0 z M 240,552 l 24,0 0,24 -24,0 z M 288,552 l 24,0 0,24 -24,0 z M 312,552 l 24,0 0,24 -24,0 z M 336,552 l 24,0 0,24 -24,0 z M 360,552 l 24,0 0,24 -24,0 z M 480,552 l 24,0 0,24 -24,0 z M 504,552 l 24,0 0,24 -24,0 z M 528,552 l 24,0 0,24 -24,0 z M 96,576 l 24,0 0,24 -24,0 z M 120,576 l 24,0 0,24 -24,0 z M 144,576 l 24,0 0,24 -24,0 z M 168,576 l 24,0 0,24 -24,0 z M 192,576 l 24,0 0,24 -24,0 z M 216,576 l 24,0 0,24 -24,0 z M 240,576 l 24,0 0,24 -24,0 z M 288,576 l 24,0 0,24 -24,0 z M 336,576 l 24,0 0,24 -24,0 z M 360,576 l 24,0 0,24 -24,0 z M 384,576 l 24,0 0,24 -24,0 z M 408,576 l 24,0 0,24 -24,0 z M 432,576 l 24,0 0,24 -24,0 z M 456,576 l 24,0 0,24 -24,0 z M 504,576 l 24,0 0,24 -24,0 z M 552,576 l 24,0 0,24 -24,0 z " />
	</g>
</svg>
