<svg version="1.1" id="レイヤー_1" xmlns="http://www.w3.org/2000/svg" x="0" y="0" viewBox="0 0 126 67.4" xml:space="preserve"><style>.st0{fill:#fff}</style><path class="st0" d="M74.6 19c-.7 0-1 .7-1 1.2h1.9c0-.5-.1-1.2-.9-1.2zm19.1 3.6c.7 0 1-.8 1-1.8s-.3-1.8-1-1.8-1.1 1-1.1 1.8c.1 1.1.4 1.8 1.1 1.8zM38.2 19c-.7 0-1 .7-1 1.2h1.9c0-.5-.1-1.2-.9-1.2zm14 21.4c-.5 0-1 0-1.5.1v4.2H52c1.7 0 2.7-.9 2.7-2.2 0-1.3-1-2.1-2.5-2.1zm13.5 3.9c-1.6 0-2.2 1.7-2.2 3.3 0 1.9.8 3.3 2.3 3.3 1.5 0 2.2-1.3 2.2-3.3-.2-1.6-.8-3.3-2.3-3.3zM50.8 22.6c.7 0 1-.8 1-1.8s-.3-1.8-1-1.8-1.1 1-1.1 1.8c0 1.1.4 1.8 1.1 1.8zM21.2 40.5c-.3.9-.5 2-.8 2.9l-.9 3.2h3.3l-.8-3.1c-.3-.9-.5-2-.8-3z"/><path class="st0" d="M0 0v67.4h126V0H0zm105.8 15.8l-.2 5.5h-1.3l-.3-5.5h1.8zm-1.9 7.1c.1-.5.5-1 1.1-.9s1 .5.9 1.1c0 .5-.4.9-.9.9-.6 0-1-.4-1.1-.9v-.2zm-10.6-5h.4c1.5 0 2.7 1.2 2.8 2.7v.3c.2 1.5-.9 2.9-2.4 3.1h-.4c-1.5 0-2.8-1.2-2.8-2.7V21c-.2-1.5.9-2.9 2.4-3.1zm-15.6.1h.8v-1.3l1.7-.4V18h1.3v1.3h-1.3v2.3c0 .7.2 1 .7 1 .2 0 .3 0 .5-.1v1.3c-.4.2-.8.2-1.2.2-.5 0-.9-.2-1.2-.5-.4-.5-.6-1.1-.5-1.7v-2.5h-.8V18zm-9.2-.1h.2c1.7 0 2.4 1.3 2.4 2.9 0 .3 0 .5-.1.8h-3.5c0 .8.7 1.2 1.5 1.2.5 0 1-.1 1.5-.2l.2 1.2c-.4.1-1 .2-1.7.2-1.5.2-2.8-.9-3-2.4V21c-.2-1.6 1-3 2.5-3.1zm-18.1 0h.4c1.5 0 2.7 1.2 2.8 2.7v.3c.2 1.5-.9 2.9-2.4 3.1h-.4c-1.5 0-2.8-1.2-2.8-2.7V21c-.2-1.5.9-2.9 2.4-3.1zm-30.2-2.1h1.9l1.5 3c.4.9.8 1.7 1.2 2.6-.1-1-.2-2.2-.2-3.5v-2.2h1.6v8.1h-1.7L23 20.7c-.4-.8-.9-1.8-1.2-2.7 0 1 .1 2.2.1 3.6v2.2h-1.6v-8zm4.4 37.4l-1.2-3.9H19l-1 3.8h-3.6L19.1 38h4.5l4.7 15.2h-3.7zm4.9-29.3h-1.8V18h1.8v5.9zm-.8-6.6c-.6 0-1-.4-1-.9s.4-.9.9-.9.9.3.9.8v.1c.1.4-.3.8-.8.9zm4.9 35.8h-3.4v-16h3.4v16zm-1.2-32.2c-.1.8.5 1.6 1.3 1.7h.2c.3 0 .6 0 .9-.2l.2 1.3c-.5.2-.9.3-1.4.2-1.5.1-2.8-1-2.9-2.5v-.5c-.1-1.7 1.2-3 2.9-3.1h.3c.4 0 .8.1 1.2.2l-.3 1.3c-.3-.1-.6-.2-.9-.2-.8 0-1.5.7-1.5 1.5v.3zm7.4 32.2h-3.4v-16h3.4v16zm.9-31.7h-3.4c0 .8.7 1.2 1.5 1.2.5 0 1-.1 1.5-.2l.2 1.2c-.6.2-1.3.4-2 .3-1.5.1-2.8-1-2.9-2.4v-.6c-.2-1.6 1-3 2.5-3.1h.2c1.7 0 2.4 1.3 2.4 2.9v.7zm6.5 2.5c-.4.1-.7.1-1.1.1-.5 0-1-.1-1.3-.5-.4-.5-.6-1.1-.5-1.7v-2.6h-.8V18h.8v-1.3l1.7-.4V18h1.3v1.3H46v2.3c0 .7.2 1 .7 1 .2 0 .3 0 .5-.1v1.4zm8 29.2c-.4-1.1-.8-2.3-1-3.5-.4-1.9-1.1-2.4-2.5-2.4h-1v6h-3.4l-.1-15c1.5-.2 3-.3 4.6-.3 2.3 0 3.8.3 4.9 1.2 1 .8 1.5 2 1.4 3.2 0 1.7-1.1 3.2-2.7 3.8 1.1.6 1.8 1.6 2 2.8.3 1.5.7 2.9 1.2 4.3h-3.4zm3.5-35.4c0 1-.1 2.2-.1 3.2l-.1 3h-1.6l.5-8.1h2.2l.7 2.8c.2 1 .5 1.9.7 2.9.2-.9.4-2 .7-2.9l.8-2.8h2.2l.4 8.1h-1.6l-.1-3c0-.9-.1-2-.1-3.1-.2 1-.5 2.1-.8 2.9l-.9 3.1h-1.4l-.8-3c-.3-1-.5-2.1-.7-3.1zm7.6 35.7h-.7c-3 .2-5.5-2.1-5.7-5.1v-.6c-.2-3 2.1-5.7 5.2-5.8h.7c3-.1 5.5 2.1 5.6 5.1v.6c.2 3-2.1 5.6-5.1 5.8zm5.7-32V21c-.2-1.6 1-3 2.5-3.1h.2c1.7 0 2.4 1.3 2.4 2.9 0 .3 0 .5-.1.8h-3.5c0 .8.7 1.2 1.5 1.2.5 0 1-.1 1.5-.2l.2 1.2c-.6.2-1.3.4-2 .3-1.3-.1-2.6-1.2-2.7-2.7zm9 31.7l-.2-1.6h-.1c-.7 1.2-2 1.9-3.4 1.8-2.2 0-3.9-1.4-3.9-4.8V42h3.4v5.9c0 1.6.5 2.6 1.7 2.6.8 0 1.4-.5 1.7-1.2.1-.2.1-.5.1-.7V42h3.4v7.5c0 1.4 0 2.6.1 3.5H81zm3-37.3h2l.7 1.9c.2.6.4 1 .6 1.6.2-.5.3-1 .5-1.6l.7-1.9h1.9L88 20.6v3.3h-1.8v-3.2L84 15.8zm13.2 37.3h-3.5V47c0-1.4-.5-2.4-1.8-2.4-.8 0-1.5.5-1.7 1.3-.1.3-.1.6-.1.8v6.4h-3.4v-7.5c0-1.4 0-2.5-.1-3.5h3l.2 1.5h.1c.8-1.1 2-1.8 3.4-1.8 2.2 0 4 1.5 4 4.8v6.5zm.3-31.6V18h1.8v3.2c0 .8.2 1.3.8 1.3.4 0 .7-.2.8-.6.1-.1.1-.3.1-.4V18h1.8v5.9h-1.5l-.1-.8c-.4.6-1 .9-1.7.9-1.2 0-2-.8-2-2.5zm10.1 31.6l-.1-1.6c-.7 1.2-2.1 1.9-3.5 1.9-2.6 0-4.7-2.2-4.7-5.7 0-3.7 2.3-5.9 4.9-5.9 1.1-.1 2.2.4 2.9 1.2v-6h3.4v12.7c0 1.3 0 2.6.1 3.3h-3z"/><path class="st0" d="M105.1 44.5c-1.6 0-2.4 1.4-2.4 3.1s.9 3 2.3 3c1 0 1.8-.7 2-1.6 0-.3.1-.5.1-.8v-2c-.2-1-1-1.7-2-1.7zM68.7 19c-.7 0-1 .7-1 1.2h1.9c0-.5-.2-1.2-.9-1.2z"/></svg>