<svg version="1.1" id="レイヤー_1" xmlns="http://www.w3.org/2000/svg" x="0" y="0" viewBox="0 0 77.4 38" xml:space="preserve"><style>.st1{enable-background:new}.st2{fill:#fff}</style><g id="レイヤー_2_1_"><g id="レイヤー_1-2"><path d="M.1 16.4L70.6.5M2 37.5h72.3" fill="none" stroke="#fff" stroke-miterlimit="10"/><g class="st1"><path class="st2" d="M12.4 24.4c0 .1-.1.1-.2.1s-.3.1-.4.2c-.2.2-.5.4-.9.5-.2.1-.3.2-.5.3-.1.1-.3.1-.4.1h-.4c-.2 0-.4 0-.5.1-.2.1-.3.2-.4.3l-.4.4v.2c.1.2.1.3.2.5.5.8.9 1.7 1.4 2.5.2.3.3.6.3 1 0 .1-.1.2-.2.2-.2 0-.4-.1-.6-.2l-.5-.5c-.1 0-.1-.1 0-.1v-.4c-.3-.6-.6-1.2-1-1.7-.4-.6-.7-1.1-1.1-1.7 0-.1-.1-.1-.1 0-.2.2-.3.5-.5.8-.2.3-.3.5-.3.8 0 .2-.1.3-.2.4-.1.1-.3.1-.4.2-.2 0-.4 0-.6-.1-.4-.3-.6-.4-.7-.6-.1-.1-.1-.1-.1-.2.1-.2.2-.5.3-.7.1 0 .1-.1.2-.1l.2-.1c.6-.5 1.1-.9 1.7-1.3 0 0 .1-.1 0-.1-.1-.2-.3-.5-.4-.7-.3-.6-.6-1.2-.9-1.7-.1-.1 0-.3.1-.4.1-.1.2-.3.4-.4.1-.1.1-.1.2 0 .3.2.7.6 1 1 .1.1.1.3.2.5.1.3.3.6.4.9h.1c.4-.3.7-.6 1.1-.9l.6-.5c.1-.1.2-.1.3-.3.1-.1.2-.1.4-.1.4.1.7.2 1.1.3.3.1.6.3.9.6.2.2.4.4.5.7.1.1.1.2.1.2zm-2.7-.5l-.2-.2c-.3.1-.6.2-.9.4-.3.3-.7.6-1 .9v.1c.1.4.2.8.4 1.2.1.1.1.1.2 0 .6-.7 1.1-1.5 1.6-2.3-.1 0-.1 0-.1-.1zm8.6 2.9c-.2-.1-.4-.3-.5-.5-.1-.1-.1-.1-.1-.2s0-.2.1-.3c0-.1.1-.2.1-.3 0-.2.1-.3.3-.2h.1l.1-.1.1-.1c.1 0 .2-.1.3-.2.1-.1.2-.2.2-.3.2-.2.4-.4.5-.6.1-.1.2-.1.2 0 .2.1.4.3.5.5.2.2.2.4.3.7 0 .1 0 .1.1 0h.1s.1 0 .1-.1l-.1.1v.2c0 .2-.1.5-.1.7 0 .1-.1.2-.1.2h-.2c-.1 0-.3-.1-.4-.1-.1-.1-.2-.1-.3-.2-.1-.1-.1-.2-.2-.4l.1-.6c0-.1-.1-.2-.2-.1-.2 0-.4.2-.5.4-.1.2-.1.4.1.6.1.2.2.3.4.5.1.1.1.2.1.3 0 .1 0 .2-.1.3-.1.1-.2.1-.3.1-.3 0-.5-.1-.7-.3zm5.1-1.1c0 .1-.1.1-.1.2-.2.2-.4.5-.6.7l-.6.6c-.1.1-.2.1-.3.2-.1 0-.2.1-.3.2-.4.4-.9.7-1.3 1.1-.1.1-.2.2-.4.3-.1.1-.3.2-.4.2l-.1.1v.1c0 .1-.1.1-.1.1-.2.1-.5.2-.7.2 0 0-.1 0-.1.1h-.1v-.1c.1-.2.2-.4.3-.5h.4c.7-.2 1.2-.6 1.7-1.1.7-.7 1.1-1.6 1.3-2.6v-.3c0-.1-.1-.2-.2-.2 0 0-.1 0-.1-.1v-.2s0-.1.1-.1h.1c.1-.1.2-.1.4-.1s.3 0 .4.1c.1.1.2.1.3.2.2.2.4.4.5.6-.1.1-.1.2-.1.3zm13-2.4c-.1.1-.1.1-.2.1-.4-.1-.8-.2-1.1-.5-.3-.2-.6-.2-1-.2-.5.1-1.1.3-1.6.5-.1 0-.1.1-.1.1-.1.1-.1.2-.1.3.1 0 .2.1.3.1.1 0 .2.1.3.2.3.3.5.5.7.8.2.2.2.5.2.8 0 .2-.2.4-.3.5-.2.1-.4.2-.5.4-.3.3-.8.6-1.2.9-.6.3-1.1.6-1.7.9-.4.2-.9.4-1.4.6-.1 0-.2.1-.3.1h-.1v-.1c.3-.3.6-.6.8-.9h.1v.1c0 .1 0 .1.1.1h.2c.5-.2.9-.3 1.3-.5s.7-.4 1-.8c.3-.3.4-.7.5-1.1v-.4c0-.3-.1-.5-.4-.7-.2-.1-.3-.2-.4-.3-.1-.1-.2-.3-.3-.4h-.1c-.3.1-.5.3-.8.5-.4.3-.7.5-1.1.8-.2.1-.3.3-.5.5-.1 0-.2.1-.3.1h-.3c-.1 0-.2-.1-.3-.1-.1-.1-.2-.1-.2-.2s-.1-.2 0-.2c.2-.4.5-.7.8-1 0 .1.1.2.2.1.3-.1.5-.2.8-.4.1-.1.3-.2.5-.2.2-.1.4-.1.5-.2.1 0 .1-.1.2-.1.2-.1.3-.1.5-.2.1 0 .2-.1.3-.1.1 0 .2-.1.3 0l.5-.2s.1 0 .1-.1c0 0 0-.1.1-.1s.3 0 .4-.1c.1-.1.3-.1.4-.1.2 0 .4-.1.6-.2h.2c.1 0 .1 0 .1-.1h.2c.2 0 .4-.1.7-.1h.2c.2 0 .4 0 .5-.1h.1c.3.2.5.4.7.7.1.1.2.3.2.4-.2 0-.2.1-.3.1zm-7.1-.3l-.2.2.2-.2c.1-.2.2-.4.4-.6.2-.2.3-.3.4-.5l.3-.6s.1-.1.1-.2V21s-.1-.1-.2-.1c-.2-.2-.4-.3-.6-.5v-.2c.2-.2.4-.4.7-.6h.2c.2 0 .5 0 .7-.2.1-.1.1-.1.2-.1s.2-.1.2-.1c.2-.1.3-.2.5-.3.1-.1.2-.1.3 0 .2.2.5.4.7.6.2.2.4.5.6.8 0 .1.1.2.1.4 0 .1-.1.3-.1.4 0 .1-.1.1-.1.1-.2 0-.5.1-.8.1-.1 0-.2.1-.3.1-.2 0-.4.1-.6 0h-.9c-.2 0-.4.1-.5.2-.3.3-.7.7-1 1.1-.2.1-.3.2-.3.3zm18.8-2c-.1 0-.2.1-.3.1-.3.2-.6.4-.9.5l-.7.5c-.3.2-.5.3-.8.4-.1 0-.1 0-.2.1-.4.2-.7.5-1.1.8-.1.1-.1.2-.2.3v.1h.3c1 .2 1.7.8 2.2 1.6 0 .1.1.1.1.2.1.3.1.4-.3.5-.2 0-.3 0-.5-.1h-.2c-.4.1-.7.1-1.1.2h-.1v-.1l.3-.2h-.1c-.1 0-.3.1-.4.2-.4.4-.8.7-1.3 1.1-.1.1-.2.2-.3.2h-.1v-.1l.1-.1c.5-.5 1-.9 1.4-1.4.2-.2.3-.5.1-.7l-.1-.1h-.7c-.1 0-.3 0-.4.1-.1 0-.2.1-.3.1-.2.1-.3.1-.5 0-.4-.1-.7-.3-1-.5l-.2-.2v-.3c0-.1.1-.2.1-.2.1-.1.2-.3.3-.4.1-.1.2-.1.3-.1h.3c.1 0 .2 0 .3-.1.5-.4.9-.8 1.4-1.2.4-.4.8-.9 1.2-1.4.2-.2.3-.5.5-.7v-.2c0-.1-.1-.2-.1-.2-.2-.1-.4-.2-.6-.1-.3.1-.5.2-.8.3-.3.1-.5.2-.8.3-.1.1-.2.2-.4.3-.1.1-.2.2-.4.3l-.3.3c-.1.1-.1.2-.2.3l-.1.1c0 .1-.1.1-.1.2v.2c0 .1 0 .1-.1.2 0 .1-.1.1-.1.2-.1.3-.2.6-.3 1 0 0 0 .1-.1.1-.1.1-.3.1-.4.1-.6 0-1.1-.1-1.6-.5-.1 0-.1-.1-.2-.2s-.1-.1 0-.2c0-.1.1-.2.1-.2.1-.2.3-.5.5-.6.2-.2.4-.4.6-.5.4-.3.8-.6 1.2-1 .2-.2.5-.4.8-.5.5-.3 1-.5 1.5-.8.2-.1.5-.2.7-.3.3-.1.6-.2.9-.2.3-.1.5-.1.7 0l.6.3c.2.2.5.3.7.5.2.2.4.4.5.6.1.2.3.5.3.7.8.2.7.4.4.4z"/></g><g class="st1"><path class="st2" d="M60.2 19.8c0 .1 0 .1-.1.2 0 .5-.5 1.2-1.4 1.9l-.6.9c-.3.4-.6.7-.9 1.1-.4.4-.7.8-1.1 1.2-.1.1-.2.3-.2.5-.1.2-.2.3-.4.3s-.4-.1-.6-.2c-.2-.1-.3-.2-.5-.4-.3-.2-.5-.5-.7-.7-.1-.1-.1-.3-.1-.4-.1-.3-.2-.5-.2-.8-.1-.4-.1-.8-.1-1.2.1-.6.2-1.3.2-1.9.1-.8 0-1.6-.1-2.4 0-.1 0-.2-.1-.2 0-.1-.1-.2-.1-.3v-.2l.5-.5c.2-.1.3-.1.5 0 .5.3 1 .7 1.3 1.2.1.2.1.3.2.5 0 .1-.1.2-.1.3 0 .1-.1.2-.1.3-.3.5-.5 1.2-.8 2.3-.1.3-.2.6-.2 1 0 .2 0 .5.1.7.1.2.2.5.3.7.1.1.2.2.3.2.1 0 .2.1.3.1h.4c.6-.2 1.2-.6 1.6-1.1.6-.7 1.5-1.7 2.6-3.2 0 .2.1.2.1.1z"/></g><g class="st1"><path class="st2" d="M68.6 16.6v3.5c-.1.5-.3 1-.4 1.4 0 .2-.2.4-.3.5h-.1v-.1c0-.2 0-.3-.1-.5s-.1-.3-.2-.5c-.1-.5-.3-.9-.4-1.4-.2-.5-.4-1.1-.5-1.7-.1-.6-.2-1.1-.3-1.7 0-.1 0-.2.1-.2.1-.1.1-.1.2-.1.2-.1.4-.2.6-.2.2 0 .4-.1.7-.1.3 0 .4.1.5.3.1.4.2.6.2.8zm-.4 5.8c.3 0 .5.1.7.3.2.2.3.4.3.7 0 .3-.1.6-.3.8-.2.2-.5.2-.8.2-.5-.1-.8-.5-.9-.9 0-.1 0-.3.1-.4l.3-.3c.1-.3.4-.4.6-.4zm6.3-6.4v3.5c-.1.5-.3 1-.4 1.4 0 .2-.2.4-.3.5h-.1v-.1c0-.2 0-.3-.1-.5s-.1-.3-.2-.5c-.1-.5-.3-.9-.4-1.4-.2-.5-.4-1.1-.5-1.7-.1-.6-.2-1.1-.3-1.7 0-.1 0-.2.1-.2.1-.1.1-.1.2-.1.2-.1.4-.2.6-.2.2 0 .4-.1.7-.1.3 0 .4.1.5.3.2.4.2.6.2.8zm-.3 5.7c.3 0 .5.1.7.3.2.2.3.4.3.7 0 .3-.1.6-.3.8-.2.2-.5.2-.8.2-.5-.1-.8-.5-.9-.9 0-.1 0-.3.1-.4l.3-.3c.1-.3.3-.4.6-.4z"/></g></g></g></svg>