<svg xmlns="http://www.w3.org/2000/svg" width="40" height="40"><g data-name="グループ 30"><path data-name="長方形 230" fill="none" d="M0 0h40v40H0z"/><path data-name="長方形 219" d="M0 2h18v4H0z"/><path data-name="長方形 220" d="M22 2h18v4H22z"/><path data-name="長方形 221" d="M0 10h10.5v4H0z"/><path data-name="長方形 241" d="M0 26h10.5v4H0z"/><path data-name="長方形 240" d="M22 34h18v4H22z"/><path data-name="長方形 222" d="M14.5 10H25v4H14.5z"/><path data-name="長方形 242" d="M14.5 26H25v4H14.5z"/><path data-name="長方形 224" d="M0 18h7v4H0z"/><path data-name="長方形 236" d="M11 18h18v4H11z"/><path data-name="長方形 237" d="M22 18h7v4h-7z"/><path data-name="長方形 238" d="M33 18h7v4h-7z"/><path data-name="長方形 223" d="M29 10h11v4H29z"/><path data-name="長方形 243" d="M29 26h11v4H29z"/><path data-name="長方形 239" d="M0 34h18v4H0z"/></g></svg>