<svg xmlns="http://www.w3.org/2000/svg" viewBox="0 0 175.91 175.9"><path d="M175.91 87.95c0 48.57-39.38 87.95-87.95 87.95S0 136.53 0 87.95 39.38 0 87.95 0s87.95 39.38 87.95 87.95" fill="#bf2b2f"/><path d="M43.21 92.2c-3.36-1.61-6.35-3.99-8.94-7.13-3.82-4.84-5.73-10.61-5.73-17.32l3.44-2.93 2.98.51v1.4c-1.38 1.28-1.76 2.89-1.15 4.84l.46 1.4-.46 1.4 1.15 3.95-.23 1.4 6.88 7.26h1.61c0-1.95.61-3.1 1.83-3.44l2.06 2.42v4.33c-.77 1.61-2.06 2.25-3.9 1.91m-1.61 23.57l-1.38-.89-.92-3.82c3.82-.68 7.38-1.97 10.66-3.89 3.29-1.91 6.54-3.84 9.75-5.8l.92-9.17-1.83-.51c-.61 1.61-1.76 2.29-3.44 2.04l-.46 1.4-2.98 1.4-3.9-1.91-.46-1.4 5.96-6.24c0-1.95.76-3.39 2.29-4.33l2.52-2.93h1.38l1.6-5.73h-1.15c-3.21 2.89-6.73 4.97-10.55 6.24l-.23-1.91.23-2.42-.23-1.53c3.97-2.55 8.1-4.63 12.38-6.24v-6.24l-2.06-.51c-4.13 1.61-7.87 4.04-11.24 7.26l-1.38 1.02v-1.53l-.46-1.4H48l.46-2.93c4.89-2.55 9.63-5.6 14.22-9.17l.46-2.8-.92-3.82.46-4.84h-2.06c-3.52 1.62-7.26 2.72-11.24 3.31l-3.9-1.91c5.96-2.21 11.69-4.46 17.2-6.75 1.68-3.82 2.83-7.98 3.44-12.48h1.38l2.06 1.91.46 5.35-.92 4.33 4.36.38 2.98-.89 3.44 1.4.46 2.42c-2.6 2.29-5.5 3.91-8.71 4.84l-3.44 1.4-2.07 7.26 1.84.51 3.67-1.02 2.29.51c2.6-1.27 5.35-1.74 8.26-1.4 1.99.59 3.97 1.7 5.96 3.31l.92-2.42-.46-1.4c.3-5.18 1.61-9.85 3.9-14.01l1.61-.51.92-3.82 5.27-4.84.46-1.4 2.98-.51 2.52 1.53v3.31c-2.6 1.27-5.05 3.06-7.34 5.35l-1.38 4.33-1.6.38-1.38 4.33c-1.07 2.89-1.91 6.11-2.52 9.68l.92 2.93c-1.53 4.16-2.41 8.56-2.64 13.19-.23 4.63-.34 9.36-.34 14.2l1.6 1.02c.15 3.74.31 7.43.46 11.08l-1.38 3.82-1.6.51c-1.83-4.24-2.75-8.85-2.75-13.82v-15.1l1.38-4.84-.46-2.42.46-1.4c-4.89 5.78-9.94 10.74-15.13 14.9l-4.59 2.42v1.4l1.15 2.93-2.52 3.31-.92 5.35 1.83.89 4.13-4.71v-1.53l1.38-.89 2.29 4.84c-.61 2.55-1.83 4.46-3.67 5.73l-5.51 3.82-.92 7.26.46 2.8-3.44 1.53c-1.99-1.95-2.68-4.54-2.06-7.77-6.42 3.57-12.61 6.46-18.57 8.66m19.03-30.7l.69-2.04h-1.6v2.04h.92zm33.94 69.69c-2.6-2.89-5.73-3.99-9.4-3.31l-1.83.51-2.98-1.91-.92-1.91 3.44-1.53.46-3.82a46.085 46.085 0 01-6.88-13.5l2.29-2.93c3.06-1.87 6.5-2.8 10.32-2.8l3.44 1.91c1.68 2.55 2.22 5.6 1.61 9.17l-1.61 4.33-1.83 1.4-1.15 4.33c1.99.34 3.82.81 5.5 1.4l2.29 1.53c1.99-3.57 3.1-7.43 3.33-11.59.23-4.16.5-8.32.8-12.48l-.69-6.75.23-6.24-2.06-1.53c-4.89 1.61-9.63 3.74-14.22 6.37l-2.98 2.8-1.84 1.02-2.06 5.73-1.83.51-.69-2.93.23-2.42-2.06-.89c-2.6 1.87-4.43 4.25-5.5 7.13l-.92 6.37 2.52 9.05h1.38l.69-6.62h1.83l1.83 1.4.23 4.84-.23 1.91.23 1.4c0 2.29-.69 4.08-2.06 5.35l-1.83.38-5.51-6.62c-2.9-5.18-4.51-10.83-4.82-16.94.61-3.23 2.22-6.11 4.82-8.66 3.52-.93 6.8-2.04 9.86-3.31v1.4h1.38l.46-1.91 2.06-1.02 6.19-5.73 4.59-1.4c1.53-1.27 3.44-1.91 5.73-1.91 3.67-3.23 5.89-7.24 6.65-12.04.76-4.8 1.38-9.62 1.83-14.46l-.23-3.44c.15-6.37 1.38-12.44 3.67-18.22l-4.59 4.33-5.73 3.31v-2.42l1.83-1.4.92-3.31c5.35-4.84 11.39-8.07 18.12-9.68 2.6.94 5.2 2.04 7.8 3.31l-.92 1.02c0 1.95-.92 3.23-2.75 3.82l-8.48 3.44c-3.21 6.12-4.82 12.99-4.82 20.64l-1.38 1.91.92 7.77c-.77 6.11-2.6 11.72-5.5 16.82 2.6 2.89 3.59 6.58 2.98 11.08l-.46 4.33.46 3.82-.92 2.42.92 7.26c-1.22 6.12-2.98 11.89-5.27 17.33l-6.88 2.8zm-26.6-74.02l2.52-2.93c3.21-3.82 6.5-7.85 9.86-12.1l2.3-.38c.76-2.89 1.61-5.65 2.52-8.28l-5.27-.89-12.38 2.42-1.83 4.33.92 2.8 2.98 2.04.46 2.8-.46 1.53.46 1.4c-1.99 1.95-3.14 4.38-3.44 7.26h1.38zm18.34 59.62c2.14-3.23 3.44-6.75 3.9-10.57l-2.52-1.02-4.82 2.42-.23 2.93 3.67 6.24z" fill="#dbc98c"/><path d="M63.36 14.02h84.56v93.71m-46.28 56.56H17.07V70.58" fill="none" stroke="#cebc84"/><path d="M134.89 28.62c.07.18 0 .3-.18.37s-.32.02-.39-.15c-.18-.32-.44-.64-.79-.96-.7-.6-1.52-.91-2.47-.93-.54-.02-1 .12-1.37.43a1.753 1.753 0 00-.67 1.39c0 1.15.98 1.88 2.93 2.18 1.21.2 2.13.6 2.76 1.22.57.55.85 1.19.85 1.91 0 .64-.21 1.22-.65 1.74-.43.52-.99.85-1.68.99-.34.07-.67.1-1 .1-.75 0-1.51-.2-2.26-.6l-.21-.06c-.16 0-.31.15-.44.44-.05.12-.15.17-.29.16-.14-.01-.24-.07-.28-.19l-.87-2.25c-.05-.15 0-.26.16-.34.17-.08.31-.04.39.1.23.37.59.76 1.1 1.16.87.71 1.8 1.06 2.8 1.06.56 0 1.04-.22 1.45-.66s.61-.93.61-1.48-.2-.99-.61-1.37c-.47-.44-1.16-.74-2.08-.88-2.42-.38-3.63-1.35-3.63-2.9 0-.29.04-.59.13-.88.2-.58.55-1.03 1.06-1.35.51-.32 1.1-.48 1.79-.48h.02c.6 0 1.2.13 1.78.38.1.05.19.07.28.07.14 0 .27-.07.38-.22.07-.1.16-.14.29-.13.13.01.22.07.26.18l.82 1.94zm1.98 22.5c0 .19-.1.28-.31.28h-3.53c-.21 0-.31-.09-.31-.28s.1-.28.31-.28c.82 0 1.23-.24 1.23-.72v-3.61h-5.1v3.56c0 .51.43.77 1.28.77.21 0 .31.09.31.28s-.1.28-.31.28h-3.53c-.21 0-.31-.09-.31-.28s.1-.28.31-.28c.82 0 1.23-.24 1.23-.72v-7.39c0-.52-.42-.78-1.24-.78-.21 0-.31-.09-.31-.28s.1-.28.31-.28h3.53c.21 0 .31.09.31.28s-.1.28-.31.28c-.84 0-1.26.25-1.26.75v3.25h5.1v-3.22c0-.52-.41-.78-1.23-.78-.21 0-.31-.09-.31-.28s.1-.28.31-.28h3.52c.21 0 .31.09.31.28s-.1.28-.31.28c-.83 0-1.24.25-1.24.75v7.38c0 .51.42.77 1.26.77.21 0 .31.09.31.28m-2.67 14.72c0 .19-.1.28-.31.28h-4.37c-.21 0-.31-.09-.31-.28s.1-.28.31-.28c1.12 0 1.69-.28 1.69-.85v-7.21c0-.55-.56-.82-1.67-.82-.21 0-.31-.09-.31-.28s.1-.28.31-.28h4.35c.21 0 .31.09.31.28s-.1.28-.31.28c-1.09 0-1.64.28-1.64.84v7.21c0 .31.12.52.37.65.24.13.67.19 1.27.19.21 0 .31.09.31.28m2.15 12.04c0 1.03-.43 1.81-1.29 2.33-.65.39-1.4.59-2.23.59h-5.4c-.21.01-.31-.08-.31-.27s.1-.28.31-.28c.86 0 1.29-.24 1.29-.72v-7.38c0-.28-.09-.48-.28-.6-.19-.13-.55-.19-1.1-.19-.21 0-.31-.09-.31-.28s.1-.28.31-.28h5.19c2.12-.01 3.17.75 3.17 2.28 0 1.05-.64 1.82-1.92 2.3.76.24 1.37.55 1.82.96.49.45.74.97.74 1.55m-1.86-4.8c0-1.09-.64-1.66-1.93-1.72h-1.72c-.51 0-.82.04-.92.11-.1.07-.15.29-.15.66v3.05h2.23c1.66 0 2.49-.7 2.49-2.09m.65 4.93c0-.65-.24-1.19-.73-1.63-.49-.44-1.08-.66-1.77-.66h-2.86v3.76c0 .38.05.6.15.67.1.06.44.1 1.03.1h2.01c.52 0 .99-.17 1.41-.5.51-.41.77-.99.77-1.74m1.99 17.21c0 .19-.1.28-.31.28h-3.17c-.21 0-.31-.09-.3-.28 0-.19.1-.28.31-.28h.08c.3 0 .51-.07.62-.21.09-.1.09-.25.02-.46l-.82-2.25h-4.42l-.85 2.24c-.11.29-.05.48.18.57.13.07.27.1.43.1.21 0 .3.11.3.3s-.11.28-.31.28h-2.31c-.21 0-.31-.09-.31-.28 0-.2.1-.3.31-.3.46 0 .8-.22 1.03-.66L131 85.5c.06-.12.15-.18.3-.18h.65c.15 0 .25.07.29.19l3.24 8.6c.11.3.22.52.34.63.15.15.38.22.67.22h.34c.2 0 .3.09.31.28m-3.78-3.75l-1.96-5.31-2.03 5.31h3.99zm3.11 18.49c.03.19-.06.29-.26.32h-1.72c-.13 0-.22-.05-.28-.15l-2.9-4.73h-1.7v3.55c0 .5.4.75 1.19.75.22 0 .33.09.33.28s-.11.28-.33.28h-3.43c-.21 0-.31-.09-.31-.28s.1-.28.31-.28c.82 0 1.23-.25 1.23-.75v-7.38c0-.5-.4-.75-1.19-.75-.21 0-.31-.09-.31-.28s.1-.28.31-.28h4.96c.78 0 1.47.19 2.09.57.72.45 1.08 1.05 1.08 1.78 0 .79-.34 1.42-1.01 1.92-.55.4-1.24.67-2.08.81h-.03c1.51 2.63 2.44 4.03 2.81 4.21.23.11.45.16.65.16h.29c.17 0 .27.08.3.24m-2.14-7.33c0-.51-.22-.94-.67-1.3-.39-.32-.81-.49-1.24-.49-.04 0-.58 0-1.62-.02-.51 0-.81.02-.88.06-.2.08-.29.31-.29.69v3.27h2.29c.68 0 1.24-.19 1.68-.56.49-.4.74-.96.74-1.66m2.81 22.08c0 .19-.1.28-.31.28h-3.17c-.21 0-.31-.09-.3-.28 0-.19.1-.28.31-.28h.08c.3 0 .51-.07.62-.21.09-.1.09-.25.02-.46l-.82-2.25h-4.42l-.85 2.24c-.11.29-.05.48.18.57.13.07.27.1.43.1.21.01.3.11.3.3s-.11.28-.31.28h-2.31c-.21 0-.31-.09-.31-.28 0-.2.1-.3.31-.3.46 0 .8-.22 1.03-.66l3.37-8.81c.06-.12.15-.18.3-.18h.65c.15 0 .25.06.29.19l3.24 8.6c.11.3.22.52.34.63.15.15.38.22.67.22h.34c.2 0 .3.09.31.28m-3.78-3.75l-1.96-5.31-2.03 5.31h3.99zm3.61 18.51c0 .2-.1.29-.31.29h-3.42c-.21 0-.31-.1-.31-.29s.1-.28.31-.28c.26 0 .44-.06.52-.19.1-.15.1-.29 0-.43l-2.99-4.29-1.64 1.58v2.59c0 .5.44.75 1.33.75.21 0 .31.09.31.28s-.1.28-.31.28h-3.39c-.21 0-.31-.09-.31-.28s.1-.28.31-.28c.68 0 1.01-.25 1.01-.75v-7.38c0-.51-.38-.77-1.15-.77-.21 0-.31-.09-.31-.28s.1-.28.31-.28h3.52c.21 0 .31.09.31.28s-.1.28-.31.28c-.88 0-1.33.26-1.33.77v3.96l4.39-4.24c.04-.13.04-.22-.02-.28-.1-.13-.4-.19-.9-.19-.22 0-.33-.09-.33-.28s.11-.28.33-.28h3.68c.21 0 .31.09.31.28s-.1.28-.31.28c-.64 0-1.11.06-1.39.18-.21.08-.49.29-.85.63l-2.54 2.44v.02l3.32 4.7c.43.6 1.04.9 1.83.9.21 0 .31.09.31.28m-.13 5.3c0 .19-.1.28-.31.28-.39 0-.66.05-.8.15-.2.12-.3.35-.3.69v5.45c0 .92-.24 1.69-.74 2.31-.59.75-1.44 1.12-2.55 1.12-1.31 0-2.32-.29-3.02-.88-.7-.59-1.06-1.43-1.06-2.53v-5.52c0-.52-.37-.78-1.11-.78-.21 0-.31-.09-.31-.28s.1-.28.31-.28h3.32c.21 0 .31.09.31.28s-.1.28-.31.28c-.79 0-1.18.25-1.18.75v5.54c0 1.91 1.01 2.87 3.04 2.87 1.08 0 1.84-.42 2.29-1.25.25-.48.38-1.02.38-1.62v-5.45c0-.37-.09-.61-.28-.72-.13-.08-.41-.12-.83-.12-.21 0-.31-.09-.31-.28s.1-.28.31-.28h2.83c.21 0 .31.09.31.28" fill="#cebc84"/></svg>