<svg xmlns="http://www.w3.org/2000/svg" viewBox="0 0 76.2 44"><path d="M11.4 22.5c-.1.1-.1.1-.2.1s-.3.1-.4.1c-.3.2-.6.2-1 .2h-.1c-.1.1-.3.1-.5.2h-.4c-.1 0-.3-.1-.4-.1h-.6c-.2 0-.3.1-.5.2s-.3.2-.5.3c-.1 0-.1.1-.1.2 0 .2.1.3.1.5.2.8.5 1.7.7 2.7.1.3.1.7 0 1 0 .1-.1.2-.3.1-.2 0-.4-.2-.5-.4-.1-.2-.2-.4-.4-.6-.1-.1-.1-.1 0-.1 0-.1 0-.2.1-.2s0-.2 0-.2c-.1-.6-.3-1.3-.5-1.9-.2-.7-.4-1.3-.6-1.9 0-.1-.1-.1-.1-.1-.2.2-.5.4-.7.6-.2.2-.4.5-.5.7.1.1 0 .2-.1.2-.1.1-.3.1-.4 0-.2 0-.4-.1-.6-.2-.2-.1-.3-.3-.4-.5v-.2c.2-.2.3-.4.5-.6h.4l1.8-.9c.1 0 .1-.1.1-.1-.1-.3-.2-.5-.2-.8-.2-.6-.3-1.3-.4-1.9 0-.1 0-.3.2-.3.2-.1.3-.2.5-.3.1-.1.2 0 .2 0 .3.4.6.9.7 1.4 0 .2.1.3 0 .5h-.1c.1.3.1.6.2.9h.1c.4-.2.8-.4 1.3-.6l.8-.3c.2 0 .3-.1.4-.2.1-.1.3-.1.4 0 .3.2.7.4 1 .6.3.2.5.5.7.8.2.3.3.5.3.8.1.1.1.2 0 .3zm-2.5-1.3c0-.1-.1-.2-.1-.2-.3 0-.6 0-.9.2l-1.2.6-.1.1c-.1.4 0 .8.1 1.3 0 .1.1.2.2.1.8-.5 1.5-1.1 2.1-1.8-.1-.1-.1-.2-.1-.3zm12.8 5.3c-.1.1-.1.1-.2.1-.3.2-.5.3-.8.5-.3.2-.5.3-.8.5-.1 0-.2.1-.3.1-.1 0-.2.1-.3.1-.5.2-1 .5-1.6.7-.1.1-.3.1-.4.2-.1.1-.3.1-.5.1 0 0-.1 0-.1.1s0 .1-.1.1-.1.1-.2.1h-1.1V29l.4-.4h.5c.7 0 1.3-.3 1.9-.6.8-.5 1.5-1.2 1.9-2.1 0-.1.1-.2.1-.3 0-.1 0-.2-.1-.3 0 0-.1 0-.1-.1V25h.2c.1-.1.3-.1.4 0 .1 0 .2.1.3.2l.3.3c.2.2.3.5.3.7.4.2.4.3.3.3zm-5.2-.2c-.2-.2-.3-.4-.4-.6v-.3c0-.1.1-.2.1-.2l.2-.2c.1-.2.2-.2.4-.1h.1s.1 0 .1-.1h.1c.1 0 .3-.1.4-.2.1-.1.2-.2.3-.2.2-.1.5-.3.7-.5h.2c.2.2.3.4.4.6.1.2.1.5.1.7 0 .1 0 .1.1.1h.2l-.1.1-.1.1c-.1.2-.2.4-.2.7 0 .1-.1.1-.2.2h-.2c-.1-.1-.2-.1-.3-.2-.1-.1-.2-.2-.2-.3 0-.1-.1-.3-.1-.4l.1-.6c0-.1 0-.2-.2-.2-.3 0-.4.1-.6.3s-.2.4-.1.6c.1.2.1.4.2.6 0 .1.1.2.1.3 0 .1-.1.2-.2.3h-.3c-.2-.2-.4-.3-.6-.5zm18.4 1.3h-.2c-.4-.2-.7-.4-.9-.7-.2-.3-.5-.4-.9-.4h-1.6c-.1 0-.1 0-.1.1-.1.1-.2.2-.2.3.1 0 .1.1.2.2l.2.2c.2.3.4.6.5 1 .1.3.1.5 0 .8-.1.2-.2.3-.5.4-.2.1-.4.1-.6.2-.4.2-.9.4-1.4.5-.6.1-1.3.3-1.9.4-.5.1-1 .2-1.5.2h-.4s-.1 0-.1-.1c0 0 0-.1.1-.1.3-.2.7-.4 1-.6h.1v.1c0 .1 0 .1.1.2 0 0 .1.1.2.1.5 0 .9-.1 1.4-.2.4 0 .8-.2 1.1-.5.3-.3.6-.6.8-1 .1-.1.1-.2.1-.4.1-.3 0-.5-.2-.8-.1-.1-.2-.3-.3-.4-.1-.1-.1-.3-.1-.5h-.1l-.9.3c-.4.2-.8.3-1.2.5l-.6.3h-.4c-.1 0-.2 0-.3-.1s-.2-.1-.2-.2c-.1-.1-.1-.2-.2-.2V27c.3-.3.7-.6 1.1-.7 0 .1 0 .2.2.2.3-.1.6-.1.9-.2.2 0 .3-.1.5-.1s.4 0 .6-.1c.1 0 .1 0 .2-.1h.5c.1 0 .2 0 .3-.1h1c.1.1.3.1.4.1h1.3c.1 0 .1 0 .1-.1l.1.1h.1c.2 0 .4 0 .7.1h.2c.2.1.3.1.5.1h.1c.2.3.4.6.5.9.1.1.1.3.1.5-.3-.1-.3 0-.4 0zm-6.8-2.2c-.1 0-.1.1-.2.1l.2-.1c.1-.2.3-.4.5-.5.2-.1.4-.3.5-.4l.5-.5.1-.1s.1-.1 0-.1c0-.1-.1-.1-.1-.1-.2-.2-.3-.4-.5-.6v-.2c.3-.1.5-.2.8-.4h.2c.2.1.5.1.7 0h.5c.2 0 .4-.1.5-.1.1 0 .2 0 .3.1.2.2.3.5.5.8.2.3.3.6.3.9v.4c-.1.1-.2.3-.2.4 0 0-.1.1-.2.1-.3 0-.5-.1-.8-.1h-.4c-.2 0-.4 0-.6-.1h-.1c-.1 0-.3 0-.4-.1-.1-.1-.2-.1-.4-.1s-.4 0-.6.1c-.4.2-.8.5-1.2.8.3-.3.2-.2.1-.2zm18.7 3c-.1 0-.2 0-.3.1-.3.1-.6.2-1 .3l-.8.3c-.3.1-.6.1-.9.1h-.2c-.4.1-.8.2-1.2.5l-.3.3v.1c.1 0 .2.1.3.1.9.5 1.4 1.2 1.7 2.1v.2c.1.3-.1.4-.4.4-.2 0-.3-.1-.5-.2H43c-.4 0-.8-.1-1.1-.1h-.1.1l.4-.1c-.1 0-.3 0-.4.1-.5.2-1 .5-1.5.7-.1.1-.2.1-.3.1H40v-.1h.1c.6-.3 1.2-.7 1.7-1 .3-.2.4-.4.3-.7 0-.1-.1-.1-.1-.1-.2-.1-.4-.2-.6-.2H41c-.1 0-.2 0-.3.1-.2.1-.3 0-.5-.1-.3-.2-.6-.5-.8-.8 0-.1-.1-.1-.1-.2s0-.2.1-.3l.2-.2c.2-.1.3-.2.4-.3.1-.1.2-.1.3 0h.6c.6-.3 1.1-.5 1.6-.8.5-.3 1-.6 1.5-1 .2-.2.4-.4.7-.6.1-.1.1-.1.1-.2s0-.2-.1-.2c-.1-.2-.3-.3-.6-.3s-.5.1-.8.1c-.3 0-.5.1-.8.1-.1.1-.3.1-.4.2-.1.1-.3.1-.4.2-.1.1-.3.2-.4.2-.1.1-.2.1-.3.2-.1 0-.1.1-.2.1-.1.1-.1.1-.1.2s-.1.1-.1.2 0 .1-.1.2c-.1 0-.1.1-.2.1-.2.3-.4.6-.5.8l-.1.1h-.5c-.6-.1-1.1-.4-1.5-.9-.1-.1-.1-.1-.1-.2-.1-.1 0-.1 0-.2.1-.1.1-.1.1-.2.2-.2.4-.4.6-.5.2-.1.5-.2.7-.3.5-.2 1-.4 1.4-.6l.9-.3c.6-.1 1.1-.3 1.7-.3.3-.1.5-.1.8-.1h.9c.3 0 .5.1.7.2.2.1.4.3.5.5.2.2.4.4.5.6.2.2.3.5.4.7.1.2.1.5.1.8.3 0 .2.2-.1.1zm12 2c0 .1-.1.1-.1.2-.1.5-.8 1-1.9 1.5-.3.2-.5.5-.8.7-.4.3-.8.6-1.2.8-.5.3-.9.6-1.4.9-.1.1-.2.2-.3.4-.1.1-.3.2-.5.2-.2-.1-.4-.2-.5-.3-.1-.2-.3-.3-.4-.5-.2-.3-.3-.6-.5-.9v-1.2c0-.4.1-.8.2-1.1.3-.6.5-1.2.7-1.8.3-.8.5-1.5.5-2.3v-.8l.6-.3c.2-.1.3-.1.5.1.4.4.8.9 1 1.5 0 .2.1.4.1.5-.1.1-.1.2-.2.3-.1.1-.1.2-.2.3-.4.4-.8 1-1.4 2-.2.3-.3.6-.5.9-.1.2-.1.5-.1.7 0 .2 0 .5.1.7 0 .1.1.2.2.3.1.1.2.1.3.2.1.1.2.1.3.1.7-.1 1.3-.3 1.9-.7.8-.5 1.9-1.3 3.3-2.4.2.1.3 0 .3 0zm4.1 4.1c.3.1.4.2.6.5.1.2.2.5.1.7-.1.3-.3.5-.5.7-.3.1-.6.1-.8-.1-.4-.3-.6-.6-.6-1.1 0-.1.1-.3.2-.4.1-.1.2-.2.4-.2.1-.2.4-.2.6-.1zm1.9-5.5c0 .2-.1.4-.2.6 0 .2-.1.3-.1.5-.2.7-.3 1.4-.5 2.1 0 .1-.1.2-.1.2-.3.4-.5.9-.7 1.3-.1.2-.3.3-.5.4h-.1V34c.1-.2.1-.3.1-.5V33c0-.5 0-1-.1-1.4 0-.6-.1-1.2-.1-1.8 0-.6.1-1.1.2-1.7 0-.1.1-.1.2-.2.1 0 .2 0 .3-.1h.7c.2 0 .4.1.7.1.2 0 .4.2.4.5-.2.2-.2.4-.2.6zm4.1 6.4c.3.1.4.2.6.5.1.2.2.5.1.7-.1.3-.3.5-.5.7-.3.1-.6.1-.8-.1-.4-.3-.6-.6-.6-1.1 0-.1.1-.3.2-.4.1-.1.2-.2.4-.2.1-.1.3-.2.6-.1zm1.8-5.4c0 .2-.1.4-.2.6 0 .2-.1.3-.1.5-.2.7-.3 1.4-.5 2.1 0 .1-.1.2-.1.2-.3.4-.5.9-.7 1.3-.1.2-.3.3-.5.4h-.1V35c0-.2.1-.3.1-.5V34c0-.5 0-1-.1-1.4 0-.6-.1-1.2-.1-1.8 0-.6.1-1.1.2-1.7 0-.1.1-.1.2-.2.1 0 .2 0 .3-.1h.7c.2 0 .4.1.7.1.2 0 .4.2.4.5-.2.2-.2.4-.2.6z" fill="#fff"/><path d="M7.1.5L76 22.2M.3 43.5h72.2" fill="none" stroke="#fff" stroke-miterlimit="10"/></svg>